<mxfile host="app.diagrams.net" modified="2023-04-30T18:22:21.882Z" agent="Mozilla/5.0 (Windows NT 10.0; Win64; x64; rv:109.0) Gecko/20100101 Firefox/112.0" etag="Bh8bjfqCAbJcvVUwZRSu" version="21.2.2" type="device">
  <diagram id="C5RBs43oDa-KdzZeNtuy" name="Page-1">
    <mxGraphModel dx="1985" dy="815" grid="1" gridSize="10" guides="1" tooltips="1" connect="1" arrows="1" fold="1" page="1" pageScale="1" pageWidth="827" pageHeight="1169" math="0" shadow="0">
      <root>
        <mxCell id="WIyWlLk6GJQsqaUBKTNV-0" />
        <mxCell id="WIyWlLk6GJQsqaUBKTNV-1" parent="WIyWlLk6GJQsqaUBKTNV-0" />
        <mxCell id="25swe_HBLn_l2zWtHl6I-0" value="Movie" style="swimlane;fontStyle=0;align=center;verticalAlign=top;childLayout=stackLayout;horizontal=1;startSize=55;horizontalStack=0;resizeParent=1;resizeParentMax=0;resizeLast=0;collapsible=0;marginBottom=0;html=1;" vertex="1" parent="WIyWlLk6GJQsqaUBKTNV-1">
          <mxGeometry x="20" y="290" width="140" height="203" as="geometry" />
        </mxCell>
        <mxCell id="25swe_HBLn_l2zWtHl6I-1" value="id:int" style="text;html=1;strokeColor=none;fillColor=none;align=left;verticalAlign=middle;spacingLeft=4;spacingRight=4;overflow=hidden;rotatable=0;points=[[0,0.5],[1,0.5]];portConstraint=eastwest;" vertex="1" parent="25swe_HBLn_l2zWtHl6I-0">
          <mxGeometry y="55" width="140" height="20" as="geometry" />
        </mxCell>
        <mxCell id="25swe_HBLn_l2zWtHl6I-2" value="name: string" style="text;html=1;strokeColor=none;fillColor=none;align=left;verticalAlign=middle;spacingLeft=4;spacingRight=4;overflow=hidden;rotatable=0;points=[[0,0.5],[1,0.5]];portConstraint=eastwest;" vertex="1" parent="25swe_HBLn_l2zWtHl6I-0">
          <mxGeometry y="75" width="140" height="20" as="geometry" />
        </mxCell>
        <mxCell id="25swe_HBLn_l2zWtHl6I-3" value="&lt;font color=&quot;#000000&quot;&gt;desciption: string&lt;br&gt;&lt;/font&gt;" style="text;html=1;strokeColor=none;fillColor=none;align=left;verticalAlign=middle;spacingLeft=4;spacingRight=4;overflow=hidden;rotatable=0;points=[[0,0.5],[1,0.5]];portConstraint=eastwest;fontColor=#808080;" vertex="1" parent="25swe_HBLn_l2zWtHl6I-0">
          <mxGeometry y="95" width="140" height="20" as="geometry" />
        </mxCell>
        <mxCell id="25swe_HBLn_l2zWtHl6I-4" value="durationMins: int" style="text;html=1;strokeColor=none;fillColor=none;align=left;verticalAlign=middle;spacingLeft=4;spacingRight=4;overflow=hidden;rotatable=0;points=[[0,0.5],[1,0.5]];portConstraint=eastwest;" vertex="1" parent="25swe_HBLn_l2zWtHl6I-0">
          <mxGeometry y="115" width="140" height="20" as="geometry" />
        </mxCell>
        <mxCell id="25swe_HBLn_l2zWtHl6I-5" value="releaseDate: date" style="text;html=1;strokeColor=none;fillColor=none;align=left;verticalAlign=middle;spacingLeft=4;spacingRight=4;overflow=hidden;rotatable=0;points=[[0,0.5],[1,0.5]];portConstraint=eastwest;" vertex="1" parent="25swe_HBLn_l2zWtHl6I-0">
          <mxGeometry y="135" width="140" height="20" as="geometry" />
        </mxCell>
        <mxCell id="25swe_HBLn_l2zWtHl6I-6" value="genre: string" style="text;html=1;strokeColor=none;fillColor=none;align=left;verticalAlign=middle;spacingLeft=4;spacingRight=4;overflow=hidden;rotatable=0;points=[[0,0.5],[1,0.5]];portConstraint=eastwest;" vertex="1" parent="25swe_HBLn_l2zWtHl6I-0">
          <mxGeometry y="155" width="140" height="20" as="geometry" />
        </mxCell>
        <mxCell id="25swe_HBLn_l2zWtHl6I-7" value="" style="line;strokeWidth=1;fillColor=none;align=left;verticalAlign=middle;spacingTop=-1;spacingLeft=3;spacingRight=3;rotatable=0;labelPosition=right;points=[];portConstraint=eastwest;" vertex="1" parent="25swe_HBLn_l2zWtHl6I-0">
          <mxGeometry y="175" width="140" height="8" as="geometry" />
        </mxCell>
        <mxCell id="25swe_HBLn_l2zWtHl6I-8" value="getShows():list&amp;lt;Show&amp;gt;" style="text;html=1;strokeColor=none;fillColor=none;align=left;verticalAlign=middle;spacingLeft=4;spacingRight=4;overflow=hidden;rotatable=0;points=[[0,0.5],[1,0.5]];portConstraint=eastwest;" vertex="1" parent="25swe_HBLn_l2zWtHl6I-0">
          <mxGeometry y="183" width="140" height="20" as="geometry" />
        </mxCell>
        <mxCell id="25swe_HBLn_l2zWtHl6I-9" value="User" style="swimlane;fontStyle=0;align=center;verticalAlign=top;childLayout=stackLayout;horizontal=1;startSize=55;horizontalStack=0;resizeParent=1;resizeParentMax=0;resizeLast=0;collapsible=0;marginBottom=0;html=1;" vertex="1" parent="WIyWlLk6GJQsqaUBKTNV-1">
          <mxGeometry x="359" y="40" width="140" height="193" as="geometry" />
        </mxCell>
        <mxCell id="25swe_HBLn_l2zWtHl6I-10" value="&lt;font color=&quot;#000000&quot;&gt;userId:int&lt;/font&gt;" style="text;html=1;strokeColor=none;fillColor=none;align=left;verticalAlign=middle;spacingLeft=4;spacingRight=4;overflow=hidden;rotatable=0;points=[[0,0.5],[1,0.5]];portConstraint=eastwest;fontColor=#808080;" vertex="1" parent="25swe_HBLn_l2zWtHl6I-9">
          <mxGeometry y="55" width="140" height="25" as="geometry" />
        </mxCell>
        <mxCell id="25swe_HBLn_l2zWtHl6I-11" value="&lt;font color=&quot;#000000&quot;&gt;name:string&lt;/font&gt;" style="text;html=1;strokeColor=none;fillColor=none;align=left;verticalAlign=middle;spacingLeft=4;spacingRight=4;overflow=hidden;rotatable=0;points=[[0,0.5],[1,0.5]];portConstraint=eastwest;fontColor=#808080;" vertex="1" parent="25swe_HBLn_l2zWtHl6I-9">
          <mxGeometry y="80" width="140" height="25" as="geometry" />
        </mxCell>
        <mxCell id="25swe_HBLn_l2zWtHl6I-12" value="email:string" style="text;html=1;strokeColor=none;fillColor=none;align=left;verticalAlign=middle;spacingLeft=4;spacingRight=4;overflow=hidden;rotatable=0;points=[[0,0.5],[1,0.5]];portConstraint=eastwest;" vertex="1" parent="25swe_HBLn_l2zWtHl6I-9">
          <mxGeometry y="105" width="140" height="20" as="geometry" />
        </mxCell>
        <mxCell id="25swe_HBLn_l2zWtHl6I-13" value="&lt;font color=&quot;#000000&quot;&gt;password: string&lt;br&gt;&lt;/font&gt;" style="text;html=1;strokeColor=none;fillColor=none;align=left;verticalAlign=middle;spacingLeft=4;spacingRight=4;overflow=hidden;rotatable=0;points=[[0,0.5],[1,0.5]];portConstraint=eastwest;fontColor=#808080;" vertex="1" parent="25swe_HBLn_l2zWtHl6I-9">
          <mxGeometry y="125" width="140" height="20" as="geometry" />
        </mxCell>
        <mxCell id="25swe_HBLn_l2zWtHl6I-14" value="status: string" style="text;html=1;strokeColor=none;fillColor=none;align=left;verticalAlign=middle;spacingLeft=4;spacingRight=4;overflow=hidden;rotatable=0;points=[[0,0.5],[1,0.5]];portConstraint=eastwest;" vertex="1" parent="25swe_HBLn_l2zWtHl6I-9">
          <mxGeometry y="145" width="140" height="20" as="geometry" />
        </mxCell>
        <mxCell id="25swe_HBLn_l2zWtHl6I-15" value="" style="line;strokeWidth=1;fillColor=none;align=left;verticalAlign=middle;spacingTop=-1;spacingLeft=3;spacingRight=3;rotatable=0;labelPosition=right;points=[];portConstraint=eastwest;" vertex="1" parent="25swe_HBLn_l2zWtHl6I-9">
          <mxGeometry y="165" width="140" height="8" as="geometry" />
        </mxCell>
        <mxCell id="25swe_HBLn_l2zWtHl6I-16" value="resetPassword(): bool" style="text;html=1;strokeColor=none;fillColor=none;align=left;verticalAlign=middle;spacingLeft=4;spacingRight=4;overflow=hidden;rotatable=0;points=[[0,0.5],[1,0.5]];portConstraint=eastwest;" vertex="1" parent="25swe_HBLn_l2zWtHl6I-9">
          <mxGeometry y="173" width="140" height="20" as="geometry" />
        </mxCell>
        <mxCell id="25swe_HBLn_l2zWtHl6I-17" value="Customer" style="swimlane;fontStyle=0;align=center;verticalAlign=top;childLayout=stackLayout;horizontal=1;startSize=55;horizontalStack=0;resizeParent=1;resizeParentMax=0;resizeLast=0;collapsible=0;marginBottom=0;html=1;" vertex="1" parent="WIyWlLk6GJQsqaUBKTNV-1">
          <mxGeometry x="560" y="270" width="160" height="95" as="geometry" />
        </mxCell>
        <mxCell id="25swe_HBLn_l2zWtHl6I-18" value="makeBooking():bool" style="text;html=1;strokeColor=none;fillColor=none;align=left;verticalAlign=middle;spacingLeft=4;spacingRight=4;overflow=hidden;rotatable=0;points=[[0,0.5],[1,0.5]];portConstraint=eastwest;" vertex="1" parent="25swe_HBLn_l2zWtHl6I-17">
          <mxGeometry y="55" width="160" height="20" as="geometry" />
        </mxCell>
        <mxCell id="25swe_HBLn_l2zWtHl6I-19" value="&lt;font color=&quot;#000000&quot;&gt;getBookings():list&amp;lt;Booking&amp;gt;&lt;/font&gt;" style="text;html=1;strokeColor=none;fillColor=none;align=left;verticalAlign=middle;spacingLeft=4;spacingRight=4;overflow=hidden;rotatable=0;points=[[0,0.5],[1,0.5]];portConstraint=eastwest;fontColor=#808080;" vertex="1" parent="25swe_HBLn_l2zWtHl6I-17">
          <mxGeometry y="75" width="160" height="20" as="geometry" />
        </mxCell>
        <mxCell id="25swe_HBLn_l2zWtHl6I-20" value="Admin" style="swimlane;fontStyle=0;align=center;verticalAlign=top;childLayout=stackLayout;horizontal=1;startSize=55;horizontalStack=0;resizeParent=1;resizeParentMax=0;resizeLast=0;collapsible=0;marginBottom=0;html=1;" vertex="1" parent="WIyWlLk6GJQsqaUBKTNV-1">
          <mxGeometry x="395" y="325" width="120" height="95" as="geometry" />
        </mxCell>
        <mxCell id="25swe_HBLn_l2zWtHl6I-21" value="addMovie():bool" style="text;html=1;strokeColor=none;fillColor=none;align=left;verticalAlign=middle;spacingLeft=4;spacingRight=4;overflow=hidden;rotatable=0;points=[[0,0.5],[1,0.5]];portConstraint=eastwest;" vertex="1" parent="25swe_HBLn_l2zWtHl6I-20">
          <mxGeometry y="55" width="120" height="20" as="geometry" />
        </mxCell>
        <mxCell id="25swe_HBLn_l2zWtHl6I-22" value="&lt;font color=&quot;#000000&quot;&gt;addShow():bool&lt;/font&gt;" style="text;html=1;strokeColor=none;fillColor=none;align=left;verticalAlign=middle;spacingLeft=4;spacingRight=4;overflow=hidden;rotatable=0;points=[[0,0.5],[1,0.5]];portConstraint=eastwest;fontColor=#808080;" vertex="1" parent="25swe_HBLn_l2zWtHl6I-20">
          <mxGeometry y="75" width="120" height="20" as="geometry" />
        </mxCell>
        <mxCell id="25swe_HBLn_l2zWtHl6I-23" value="Shows" style="swimlane;fontStyle=0;align=center;verticalAlign=top;childLayout=stackLayout;horizontal=1;startSize=55;horizontalStack=0;resizeParent=1;resizeParentMax=0;resizeLast=0;collapsible=0;marginBottom=0;html=1;" vertex="1" parent="WIyWlLk6GJQsqaUBKTNV-1">
          <mxGeometry x="340" y="520" width="110" height="175" as="geometry" />
        </mxCell>
        <mxCell id="25swe_HBLn_l2zWtHl6I-24" value="&lt;font color=&quot;#000000&quot;&gt;showId:int&lt;/font&gt;" style="text;html=1;strokeColor=none;fillColor=none;align=left;verticalAlign=middle;spacingLeft=4;spacingRight=4;overflow=hidden;rotatable=0;points=[[0,0.5],[1,0.5]];portConstraint=eastwest;fontColor=#808080;" vertex="1" parent="25swe_HBLn_l2zWtHl6I-23">
          <mxGeometry y="55" width="110" height="20" as="geometry" />
        </mxCell>
        <mxCell id="25swe_HBLn_l2zWtHl6I-25" value="&lt;font color=&quot;#000000&quot;&gt;theatreId:int&lt;/font&gt;" style="text;html=1;strokeColor=none;fillColor=none;align=left;verticalAlign=middle;spacingLeft=4;spacingRight=4;overflow=hidden;rotatable=0;points=[[0,0.5],[1,0.5]];portConstraint=eastwest;fontColor=#808080;" vertex="1" parent="25swe_HBLn_l2zWtHl6I-23">
          <mxGeometry y="75" width="110" height="20" as="geometry" />
        </mxCell>
        <mxCell id="25swe_HBLn_l2zWtHl6I-26" value="movieId:int" style="text;html=1;strokeColor=none;fillColor=none;align=left;verticalAlign=middle;spacingLeft=4;spacingRight=4;overflow=hidden;rotatable=0;points=[[0,0.5],[1,0.5]];portConstraint=eastwest;" vertex="1" parent="25swe_HBLn_l2zWtHl6I-23">
          <mxGeometry y="95" width="110" height="20" as="geometry" />
        </mxCell>
        <mxCell id="25swe_HBLn_l2zWtHl6I-27" value="date:Date" style="text;html=1;strokeColor=none;fillColor=none;align=left;verticalAlign=middle;spacingLeft=4;spacingRight=4;overflow=hidden;rotatable=0;points=[[0,0.5],[1,0.5]];portConstraint=eastwest;" vertex="1" parent="25swe_HBLn_l2zWtHl6I-23">
          <mxGeometry y="115" width="110" height="20" as="geometry" />
        </mxCell>
        <mxCell id="25swe_HBLn_l2zWtHl6I-28" value="startTime:string" style="text;html=1;strokeColor=none;fillColor=none;align=left;verticalAlign=middle;spacingLeft=4;spacingRight=4;overflow=hidden;rotatable=0;points=[[0,0.5],[1,0.5]];portConstraint=eastwest;" vertex="1" parent="25swe_HBLn_l2zWtHl6I-23">
          <mxGeometry y="135" width="110" height="20" as="geometry" />
        </mxCell>
        <mxCell id="25swe_HBLn_l2zWtHl6I-29" value="endTIme" style="text;html=1;strokeColor=none;fillColor=none;align=left;verticalAlign=middle;spacingLeft=4;spacingRight=4;overflow=hidden;rotatable=0;points=[[0,0.5],[1,0.5]];portConstraint=eastwest;" vertex="1" parent="25swe_HBLn_l2zWtHl6I-23">
          <mxGeometry y="155" width="110" height="20" as="geometry" />
        </mxCell>
        <mxCell id="25swe_HBLn_l2zWtHl6I-30" value="Theatre" style="swimlane;fontStyle=0;align=center;verticalAlign=top;childLayout=stackLayout;horizontal=1;startSize=55;horizontalStack=0;resizeParent=1;resizeParentMax=0;resizeLast=0;collapsible=0;marginBottom=0;html=1;" vertex="1" parent="WIyWlLk6GJQsqaUBKTNV-1">
          <mxGeometry x="280" y="770" width="90" height="135" as="geometry" />
        </mxCell>
        <mxCell id="25swe_HBLn_l2zWtHl6I-31" value="theatreId:int" style="text;html=1;strokeColor=none;fillColor=none;align=left;verticalAlign=middle;spacingLeft=4;spacingRight=4;overflow=hidden;rotatable=0;points=[[0,0.5],[1,0.5]];portConstraint=eastwest;" vertex="1" parent="25swe_HBLn_l2zWtHl6I-30">
          <mxGeometry y="55" width="90" height="20" as="geometry" />
        </mxCell>
        <mxCell id="25swe_HBLn_l2zWtHl6I-32" value="name:string" style="text;html=1;strokeColor=none;fillColor=none;align=left;verticalAlign=middle;spacingLeft=4;spacingRight=4;overflow=hidden;rotatable=0;points=[[0,0.5],[1,0.5]];portConstraint=eastwest;" vertex="1" parent="25swe_HBLn_l2zWtHl6I-30">
          <mxGeometry y="75" width="90" height="20" as="geometry" />
        </mxCell>
        <mxCell id="25swe_HBLn_l2zWtHl6I-33" value="&lt;font color=&quot;#000000&quot;&gt;totalSeats:int&lt;/font&gt;" style="text;html=1;strokeColor=none;fillColor=none;align=left;verticalAlign=middle;spacingLeft=4;spacingRight=4;overflow=hidden;rotatable=0;points=[[0,0.5],[1,0.5]];portConstraint=eastwest;fontColor=#808080;" vertex="1" parent="25swe_HBLn_l2zWtHl6I-30">
          <mxGeometry y="95" width="90" height="20" as="geometry" />
        </mxCell>
        <mxCell id="25swe_HBLn_l2zWtHl6I-34" value="&lt;font color=&quot;#000000&quot;&gt;address:string&lt;/font&gt;" style="text;html=1;strokeColor=none;fillColor=none;align=left;verticalAlign=middle;spacingLeft=4;spacingRight=4;overflow=hidden;rotatable=0;points=[[0,0.5],[1,0.5]];portConstraint=eastwest;fontColor=#808080;" vertex="1" parent="25swe_HBLn_l2zWtHl6I-30">
          <mxGeometry y="115" width="90" height="20" as="geometry" />
        </mxCell>
        <mxCell id="25swe_HBLn_l2zWtHl6I-35" value="Bookings" style="swimlane;fontStyle=0;align=center;verticalAlign=top;childLayout=stackLayout;horizontal=1;startSize=55;horizontalStack=0;resizeParent=1;resizeParentMax=0;resizeLast=0;collapsible=0;marginBottom=0;html=1;" vertex="1" parent="WIyWlLk6GJQsqaUBKTNV-1">
          <mxGeometry x="560" y="520" width="140" height="223" as="geometry" />
        </mxCell>
        <mxCell id="25swe_HBLn_l2zWtHl6I-36" value="bookingId:int" style="text;html=1;strokeColor=none;fillColor=none;align=left;verticalAlign=middle;spacingLeft=4;spacingRight=4;overflow=hidden;rotatable=0;points=[[0,0.5],[1,0.5]];portConstraint=eastwest;" vertex="1" parent="25swe_HBLn_l2zWtHl6I-35">
          <mxGeometry y="55" width="140" height="20" as="geometry" />
        </mxCell>
        <mxCell id="25swe_HBLn_l2zWtHl6I-37" value="&lt;font color=&quot;#000000&quot;&gt;showId:int&lt;/font&gt;" style="text;html=1;strokeColor=none;fillColor=none;align=left;verticalAlign=middle;spacingLeft=4;spacingRight=4;overflow=hidden;rotatable=0;points=[[0,0.5],[1,0.5]];portConstraint=eastwest;fontColor=#808080;" vertex="1" parent="25swe_HBLn_l2zWtHl6I-35">
          <mxGeometry y="75" width="140" height="20" as="geometry" />
        </mxCell>
        <mxCell id="25swe_HBLn_l2zWtHl6I-38" value="date:date" style="text;html=1;strokeColor=none;fillColor=none;align=left;verticalAlign=middle;spacingLeft=4;spacingRight=4;overflow=hidden;rotatable=0;points=[[0,0.5],[1,0.5]];portConstraint=eastwest;" vertex="1" parent="25swe_HBLn_l2zWtHl6I-35">
          <mxGeometry y="95" width="140" height="20" as="geometry" />
        </mxCell>
        <mxCell id="25swe_HBLn_l2zWtHl6I-39" value="colNo:string" style="text;html=1;strokeColor=none;fillColor=none;align=left;verticalAlign=middle;spacingLeft=4;spacingRight=4;overflow=hidden;rotatable=0;points=[[0,0.5],[1,0.5]];portConstraint=eastwest;" vertex="1" parent="25swe_HBLn_l2zWtHl6I-35">
          <mxGeometry y="115" width="140" height="20" as="geometry" />
        </mxCell>
        <mxCell id="25swe_HBLn_l2zWtHl6I-40" value="seatNo:int" style="text;html=1;strokeColor=none;fillColor=none;align=left;verticalAlign=middle;spacingLeft=4;spacingRight=4;overflow=hidden;rotatable=0;points=[[0,0.5],[1,0.5]];portConstraint=eastwest;" vertex="1" parent="25swe_HBLn_l2zWtHl6I-35">
          <mxGeometry y="135" width="140" height="20" as="geometry" />
        </mxCell>
        <mxCell id="25swe_HBLn_l2zWtHl6I-41" value="price:int" style="text;html=1;strokeColor=none;fillColor=none;align=left;verticalAlign=middle;spacingLeft=4;spacingRight=4;overflow=hidden;rotatable=0;points=[[0,0.5],[1,0.5]];portConstraint=eastwest;" vertex="1" parent="25swe_HBLn_l2zWtHl6I-35">
          <mxGeometry y="155" width="140" height="20" as="geometry" />
        </mxCell>
        <mxCell id="25swe_HBLn_l2zWtHl6I-42" value="userEmail" style="text;html=1;strokeColor=none;fillColor=none;align=left;verticalAlign=middle;spacingLeft=4;spacingRight=4;overflow=hidden;rotatable=0;points=[[0,0.5],[1,0.5]];portConstraint=eastwest;" vertex="1" parent="25swe_HBLn_l2zWtHl6I-35">
          <mxGeometry y="175" width="140" height="20" as="geometry" />
        </mxCell>
        <mxCell id="25swe_HBLn_l2zWtHl6I-43" value="" style="line;strokeWidth=1;fillColor=none;align=left;verticalAlign=middle;spacingTop=-1;spacingLeft=3;spacingRight=3;rotatable=0;labelPosition=right;points=[];portConstraint=eastwest;" vertex="1" parent="25swe_HBLn_l2zWtHl6I-35">
          <mxGeometry y="195" width="140" height="8" as="geometry" />
        </mxCell>
        <mxCell id="25swe_HBLn_l2zWtHl6I-44" value="cancelBooking(): bool" style="text;html=1;strokeColor=none;fillColor=none;align=left;verticalAlign=middle;spacingLeft=4;spacingRight=4;overflow=hidden;rotatable=0;points=[[0,0.5],[1,0.5]];portConstraint=eastwest;" vertex="1" parent="25swe_HBLn_l2zWtHl6I-35">
          <mxGeometry y="203" width="140" height="20" as="geometry" />
        </mxCell>
        <mxCell id="25swe_HBLn_l2zWtHl6I-45" value="&amp;lt;&amp;lt;enumeration&amp;gt;&amp;gt;&lt;br&gt;&lt;b&gt;SearType&lt;/b&gt;" style="swimlane;fontStyle=0;align=center;verticalAlign=top;childLayout=stackLayout;horizontal=1;startSize=40;horizontalStack=0;resizeParent=1;resizeParentMax=0;resizeLast=0;collapsible=0;marginBottom=0;html=1;" vertex="1" parent="WIyWlLk6GJQsqaUBKTNV-1">
          <mxGeometry x="30" y="10" width="120" height="190" as="geometry" />
        </mxCell>
        <mxCell id="25swe_HBLn_l2zWtHl6I-46" value="Regular" style="text;html=1;strokeColor=none;fillColor=none;align=left;verticalAlign=middle;spacingLeft=4;spacingRight=4;overflow=hidden;rotatable=0;points=[[0,0.5],[1,0.5]];portConstraint=eastwest;" vertex="1" parent="25swe_HBLn_l2zWtHl6I-45">
          <mxGeometry y="40" width="120" height="30" as="geometry" />
        </mxCell>
        <mxCell id="25swe_HBLn_l2zWtHl6I-47" value="Premium" style="text;html=1;strokeColor=none;fillColor=none;align=left;verticalAlign=middle;spacingLeft=4;spacingRight=4;overflow=hidden;rotatable=0;points=[[0,0.5],[1,0.5]];portConstraint=eastwest;" vertex="1" parent="25swe_HBLn_l2zWtHl6I-45">
          <mxGeometry y="70" width="120" height="30" as="geometry" />
        </mxCell>
        <mxCell id="25swe_HBLn_l2zWtHl6I-48" value="Accessible" style="text;html=1;strokeColor=none;fillColor=none;align=left;verticalAlign=middle;spacingLeft=4;spacingRight=4;overflow=hidden;rotatable=0;points=[[0,0.5],[1,0.5]];portConstraint=eastwest;" vertex="1" parent="25swe_HBLn_l2zWtHl6I-45">
          <mxGeometry y="100" width="120" height="30" as="geometry" />
        </mxCell>
        <mxCell id="25swe_HBLn_l2zWtHl6I-49" value="EmergencyExit" style="text;html=1;strokeColor=none;fillColor=none;align=left;verticalAlign=middle;spacingLeft=4;spacingRight=4;overflow=hidden;rotatable=0;points=[[0,0.5],[1,0.5]];portConstraint=eastwest;" vertex="1" parent="25swe_HBLn_l2zWtHl6I-45">
          <mxGeometry y="130" width="120" height="30" as="geometry" />
        </mxCell>
        <mxCell id="25swe_HBLn_l2zWtHl6I-50" value="Other" style="text;html=1;strokeColor=none;fillColor=none;align=left;verticalAlign=middle;spacingLeft=4;spacingRight=4;overflow=hidden;rotatable=0;points=[[0,0.5],[1,0.5]];portConstraint=eastwest;" vertex="1" parent="25swe_HBLn_l2zWtHl6I-45">
          <mxGeometry y="160" width="120" height="30" as="geometry" />
        </mxCell>
        <mxCell id="25swe_HBLn_l2zWtHl6I-51" value="" style="endArrow=none;startArrow=diamondThin;endFill=0;startFill=1;html=1;verticalAlign=bottom;labelBackgroundColor=none;strokeWidth=1;startSize=8;endSize=8;rounded=0;entryX=-0.009;entryY=0.33;entryDx=0;entryDy=0;entryPerimeter=0;exitX=0.633;exitY=1.05;exitDx=0;exitDy=0;exitPerimeter=0;" edge="1" parent="WIyWlLk6GJQsqaUBKTNV-1" source="25swe_HBLn_l2zWtHl6I-8" target="25swe_HBLn_l2zWtHl6I-23">
          <mxGeometry width="160" relative="1" as="geometry">
            <mxPoint x="230" y="650" as="sourcePoint" />
            <mxPoint x="330" y="755" as="targetPoint" />
          </mxGeometry>
        </mxCell>
        <mxCell id="25swe_HBLn_l2zWtHl6I-52" value="adds" style="text;html=1;align=center;verticalAlign=middle;resizable=0;points=[];autosize=1;strokeColor=none;fillColor=none;" vertex="1" parent="WIyWlLk6GJQsqaUBKTNV-1">
          <mxGeometry x="270" y="370" width="50" height="30" as="geometry" />
        </mxCell>
        <mxCell id="25swe_HBLn_l2zWtHl6I-53" value="Seat Matrix" style="swimlane;fontStyle=0;align=center;verticalAlign=top;childLayout=stackLayout;horizontal=1;startSize=55;horizontalStack=0;resizeParent=1;resizeParentMax=0;resizeLast=0;collapsible=0;marginBottom=0;html=1;" vertex="1" parent="WIyWlLk6GJQsqaUBKTNV-1">
          <mxGeometry x="30" y="595" width="135" height="95" as="geometry" />
        </mxCell>
        <mxCell id="25swe_HBLn_l2zWtHl6I-54" value="matrix:&amp;lt;list&amp;lt;list&amp;lt;Seat&amp;gt;&amp;gt;" style="text;html=1;strokeColor=none;fillColor=none;align=left;verticalAlign=middle;spacingLeft=4;spacingRight=4;overflow=hidden;rotatable=0;points=[[0,0.5],[1,0.5]];portConstraint=eastwest;" vertex="1" parent="25swe_HBLn_l2zWtHl6I-53">
          <mxGeometry y="55" width="135" height="20" as="geometry" />
        </mxCell>
        <mxCell id="25swe_HBLn_l2zWtHl6I-55" value="&lt;div&gt;&lt;font color=&quot;#000000&quot;&gt;getSeats():list&amp;lt;list&amp;lt;integer&amp;gt;&amp;gt;&lt;br&gt;&lt;/font&gt;&lt;/div&gt;&lt;div&gt;&lt;font color=&quot;#000000&quot;&gt;&lt;br&gt;&lt;/font&gt;&lt;/div&gt;" style="text;html=1;strokeColor=none;fillColor=none;align=left;verticalAlign=middle;spacingLeft=4;spacingRight=4;overflow=hidden;rotatable=0;points=[[0,0.5],[1,0.5]];portConstraint=eastwest;fontColor=#808080;" vertex="1" parent="25swe_HBLn_l2zWtHl6I-53">
          <mxGeometry y="75" width="135" height="20" as="geometry" />
        </mxCell>
        <mxCell id="25swe_HBLn_l2zWtHl6I-56" value="" style="endArrow=none;html=1;rounded=0;entryX=-0.025;entryY=1.2;entryDx=0;entryDy=0;exitX=1.01;exitY=0.021;exitDx=0;exitDy=0;entryPerimeter=0;exitPerimeter=0;" edge="1" parent="WIyWlLk6GJQsqaUBKTNV-1" source="25swe_HBLn_l2zWtHl6I-4" target="25swe_HBLn_l2zWtHl6I-21">
          <mxGeometry width="50" height="50" relative="1" as="geometry">
            <mxPoint x="670" y="600" as="sourcePoint" />
            <mxPoint x="720" y="550" as="targetPoint" />
            <Array as="points" />
          </mxGeometry>
        </mxCell>
        <mxCell id="25swe_HBLn_l2zWtHl6I-57" value="" style="endArrow=none;html=1;rounded=0;entryX=0.158;entryY=1.1;entryDx=0;entryDy=0;entryPerimeter=0;exitX=0.5;exitY=0;exitDx=0;exitDy=0;" edge="1" parent="WIyWlLk6GJQsqaUBKTNV-1" source="25swe_HBLn_l2zWtHl6I-59" target="25swe_HBLn_l2zWtHl6I-22">
          <mxGeometry width="50" height="50" relative="1" as="geometry">
            <mxPoint x="670" y="600" as="sourcePoint" />
            <mxPoint x="720" y="550" as="targetPoint" />
          </mxGeometry>
        </mxCell>
        <mxCell id="25swe_HBLn_l2zWtHl6I-58" value="" style="endArrow=none;html=1;rounded=0;entryX=0.158;entryY=1.1;entryDx=0;entryDy=0;entryPerimeter=0;exitX=0.5;exitY=0;exitDx=0;exitDy=0;" edge="1" parent="WIyWlLk6GJQsqaUBKTNV-1" source="25swe_HBLn_l2zWtHl6I-23" target="25swe_HBLn_l2zWtHl6I-59">
          <mxGeometry width="50" height="50" relative="1" as="geometry">
            <mxPoint x="375" y="632" as="sourcePoint" />
            <mxPoint x="419" y="547" as="targetPoint" />
          </mxGeometry>
        </mxCell>
        <mxCell id="25swe_HBLn_l2zWtHl6I-59" value="adds" style="text;html=1;align=center;verticalAlign=middle;resizable=0;points=[];autosize=1;strokeColor=none;fillColor=none;" vertex="1" parent="WIyWlLk6GJQsqaUBKTNV-1">
          <mxGeometry x="395" y="463" width="50" height="30" as="geometry" />
        </mxCell>
        <mxCell id="25swe_HBLn_l2zWtHl6I-60" value="" style="endArrow=none;html=1;rounded=0;exitX=0.679;exitY=-0.025;exitDx=0;exitDy=0;exitPerimeter=0;entryX=0.372;entryY=1.212;entryDx=0;entryDy=0;entryPerimeter=0;" edge="1" parent="WIyWlLk6GJQsqaUBKTNV-1" source="25swe_HBLn_l2zWtHl6I-62" target="25swe_HBLn_l2zWtHl6I-19">
          <mxGeometry width="50" height="50" relative="1" as="geometry">
            <mxPoint x="740" y="560" as="sourcePoint" />
            <mxPoint x="720" y="620" as="targetPoint" />
          </mxGeometry>
        </mxCell>
        <mxCell id="25swe_HBLn_l2zWtHl6I-61" value="" style="endArrow=none;html=1;rounded=0;exitX=0.25;exitY=0;exitDx=0;exitDy=0;entryX=0.533;entryY=1.067;entryDx=0;entryDy=0;entryPerimeter=0;" edge="1" parent="WIyWlLk6GJQsqaUBKTNV-1" source="25swe_HBLn_l2zWtHl6I-35" target="25swe_HBLn_l2zWtHl6I-62">
          <mxGeometry width="50" height="50" relative="1" as="geometry">
            <mxPoint x="730" y="642" as="sourcePoint" />
            <mxPoint x="740" y="580" as="targetPoint" />
          </mxGeometry>
        </mxCell>
        <mxCell id="25swe_HBLn_l2zWtHl6I-62" value="creates" style="text;html=1;align=center;verticalAlign=middle;resizable=0;points=[];autosize=1;strokeColor=none;fillColor=none;" vertex="1" parent="WIyWlLk6GJQsqaUBKTNV-1">
          <mxGeometry x="570" y="450" width="60" height="30" as="geometry" />
        </mxCell>
        <mxCell id="25swe_HBLn_l2zWtHl6I-63" value="" style="endArrow=block;html=1;rounded=0;align=center;verticalAlign=bottom;endFill=0;labelBackgroundColor=none;endSize=8;exitX=0.5;exitY=0;exitDx=0;exitDy=0;entryX=0.24;entryY=1.093;entryDx=0;entryDy=0;entryPerimeter=0;" edge="1" parent="WIyWlLk6GJQsqaUBKTNV-1" source="25swe_HBLn_l2zWtHl6I-20" target="25swe_HBLn_l2zWtHl6I-16">
          <mxGeometry relative="1" as="geometry">
            <mxPoint x="693" y="260" as="sourcePoint" />
            <mxPoint x="440" y="350" as="targetPoint" />
          </mxGeometry>
        </mxCell>
        <mxCell id="25swe_HBLn_l2zWtHl6I-64" value="" style="endArrow=block;html=1;rounded=0;align=center;verticalAlign=bottom;endFill=0;labelBackgroundColor=none;endSize=8;exitX=0.375;exitY=0;exitDx=0;exitDy=0;exitPerimeter=0;entryX=0.526;entryY=1.307;entryDx=0;entryDy=0;entryPerimeter=0;" edge="1" parent="WIyWlLk6GJQsqaUBKTNV-1" source="25swe_HBLn_l2zWtHl6I-17" target="25swe_HBLn_l2zWtHl6I-16">
          <mxGeometry relative="1" as="geometry">
            <mxPoint x="470" y="460" as="sourcePoint" />
            <mxPoint x="790" y="280" as="targetPoint" />
          </mxGeometry>
        </mxCell>
        <mxCell id="25swe_HBLn_l2zWtHl6I-65" value="" style="endArrow=none;startArrow=diamondThin;endFill=0;startFill=1;html=1;verticalAlign=bottom;labelBackgroundColor=none;strokeWidth=1;startSize=8;endSize=8;rounded=0;entryX=0.103;entryY=1.207;entryDx=0;entryDy=0;entryPerimeter=0;exitX=0.5;exitY=0;exitDx=0;exitDy=0;" edge="1" parent="WIyWlLk6GJQsqaUBKTNV-1" source="25swe_HBLn_l2zWtHl6I-30" target="25swe_HBLn_l2zWtHl6I-29">
          <mxGeometry width="160" relative="1" as="geometry">
            <mxPoint x="346" y="880" as="sourcePoint" />
            <mxPoint x="389" y="844.5" as="targetPoint" />
          </mxGeometry>
        </mxCell>
        <mxCell id="25swe_HBLn_l2zWtHl6I-66" value="" style="endArrow=none;startArrow=diamondThin;endFill=0;startFill=1;html=1;verticalAlign=bottom;labelBackgroundColor=none;strokeWidth=1;startSize=8;endSize=8;rounded=0;entryX=0.253;entryY=1.236;entryDx=0;entryDy=0;entryPerimeter=0;" edge="1" parent="WIyWlLk6GJQsqaUBKTNV-1" source="25swe_HBLn_l2zWtHl6I-69" target="25swe_HBLn_l2zWtHl6I-55">
          <mxGeometry width="160" relative="1" as="geometry">
            <mxPoint x="571.0479999999998" y="467" as="sourcePoint" />
            <mxPoint x="10" y="820" as="targetPoint" />
          </mxGeometry>
        </mxCell>
        <mxCell id="25swe_HBLn_l2zWtHl6I-67" value="&amp;lt;&amp;lt;include&amp;gt;&amp;gt;" style="html=1;verticalAlign=bottom;labelBackgroundColor=none;endArrow=open;endFill=0;dashed=1;rounded=0;exitX=0.001;exitY=1.086;exitDx=0;exitDy=0;exitPerimeter=0;entryX=1.028;entryY=0.362;entryDx=0;entryDy=0;entryPerimeter=0;" edge="1" parent="WIyWlLk6GJQsqaUBKTNV-1" source="25swe_HBLn_l2zWtHl6I-26" target="25swe_HBLn_l2zWtHl6I-53">
          <mxGeometry width="160" relative="1" as="geometry">
            <mxPoint x="550" y="620" as="sourcePoint" />
            <mxPoint x="710" y="620" as="targetPoint" />
          </mxGeometry>
        </mxCell>
        <mxCell id="25swe_HBLn_l2zWtHl6I-68" value="&amp;lt;&amp;lt;include&amp;gt;&amp;gt;" style="html=1;verticalAlign=bottom;labelBackgroundColor=none;endArrow=open;endFill=0;dashed=1;rounded=0;exitX=0;exitY=0.5;exitDx=0;exitDy=0;entryX=1.009;entryY=-0.05;entryDx=0;entryDy=0;entryPerimeter=0;" edge="1" parent="WIyWlLk6GJQsqaUBKTNV-1" source="25swe_HBLn_l2zWtHl6I-37" target="25swe_HBLn_l2zWtHl6I-26">
          <mxGeometry width="160" relative="1" as="geometry">
            <mxPoint x="461" y="674" as="sourcePoint" />
            <mxPoint x="567" y="639" as="targetPoint" />
          </mxGeometry>
        </mxCell>
        <mxCell id="25swe_HBLn_l2zWtHl6I-69" value="Seat" style="swimlane;fontStyle=0;align=center;verticalAlign=top;childLayout=stackLayout;horizontal=1;startSize=55;horizontalStack=0;resizeParent=1;resizeParentMax=0;resizeLast=0;collapsible=0;marginBottom=0;html=1;whiteSpace=wrap;" vertex="1" parent="WIyWlLk6GJQsqaUBKTNV-1">
          <mxGeometry x="40" y="790" width="140" height="133" as="geometry" />
        </mxCell>
        <mxCell id="25swe_HBLn_l2zWtHl6I-70" value="&lt;div&gt;seatNumber:integer&lt;/div&gt;&lt;div&gt;isReserved : bool&lt;/div&gt;&lt;div&gt;type:String&lt;br&gt;&lt;/div&gt;" style="text;html=1;strokeColor=none;fillColor=none;align=left;verticalAlign=middle;spacingLeft=4;spacingRight=4;overflow=hidden;rotatable=0;points=[[0,0.5],[1,0.5]];portConstraint=eastwest;" vertex="1" parent="25swe_HBLn_l2zWtHl6I-69">
          <mxGeometry y="55" width="140" height="50" as="geometry" />
        </mxCell>
        <mxCell id="25swe_HBLn_l2zWtHl6I-71" value="" style="line;strokeWidth=1;fillColor=none;align=left;verticalAlign=middle;spacingTop=-1;spacingLeft=3;spacingRight=3;rotatable=0;labelPosition=right;points=[];portConstraint=eastwest;" vertex="1" parent="25swe_HBLn_l2zWtHl6I-69">
          <mxGeometry y="105" width="140" height="8" as="geometry" />
        </mxCell>
        <mxCell id="25swe_HBLn_l2zWtHl6I-72" value="getSeatNo()" style="text;html=1;strokeColor=none;fillColor=none;align=left;verticalAlign=middle;spacingLeft=4;spacingRight=4;overflow=hidden;rotatable=0;points=[[0,0.5],[1,0.5]];portConstraint=eastwest;whiteSpace=wrap;" vertex="1" parent="25swe_HBLn_l2zWtHl6I-69">
          <mxGeometry y="113" width="140" height="20" as="geometry" />
        </mxCell>
        <mxCell id="25swe_HBLn_l2zWtHl6I-73" value="" style="endArrow=none;html=1;rounded=0;exitX=1;exitY=0;exitDx=0;exitDy=0;entryX=0;entryY=0.5;entryDx=0;entryDy=0;" edge="1" parent="WIyWlLk6GJQsqaUBKTNV-1" source="25swe_HBLn_l2zWtHl6I-0" target="25swe_HBLn_l2zWtHl6I-10">
          <mxGeometry width="50" height="50" relative="1" as="geometry">
            <mxPoint x="280" y="257.5" as="sourcePoint" />
            <mxPoint x="526.96" y="184.2399999999999" as="targetPoint" />
          </mxGeometry>
        </mxCell>
        <mxCell id="25swe_HBLn_l2zWtHl6I-74" value="uses" style="text;html=1;align=center;verticalAlign=middle;resizable=0;points=[];autosize=1;strokeColor=none;fillColor=none;" vertex="1" parent="WIyWlLk6GJQsqaUBKTNV-1">
          <mxGeometry x="210" y="170" width="50" height="30" as="geometry" />
        </mxCell>
      </root>
    </mxGraphModel>
  </diagram>
</mxfile>
